<svg width="82" height="82" viewBox="0 0 82 82" fill="none" xmlns="http://www.w3.org/2000/svg">
<rect x="1.5" y="1.5" width="79" height="79" rx="16.5" stroke="url(#paint0_angular_255_830)" stroke-width="3"/>
<path d="M19.48 64V19.2H29.912L54.616 49.024H49.688V19.2H62.104V64H51.672L26.968 34.176H31.896V64H19.48Z" fill="url(#paint1_linear_255_830)"/>
<path d="M19.48 64V19.2H29.912L54.616 49.024H49.688V19.2H62.104V64H51.672L26.968 34.176H31.896V64H19.48Z" fill="url(#paint2_angular_255_830)" fill-opacity="0.3" style="mix-blend-mode:difference"/>
<path d="M19.48 64V19.2H29.912L54.616 49.024H49.688V19.2H62.104V64H51.672L26.968 34.176H31.896V64H19.48Z" fill="url(#paint3_angular_255_830)" fill-opacity="0.2" style="mix-blend-mode:screen"/>
<path d="M19.48 64V19.2H29.912L54.616 49.024H49.688V19.2H62.104V64H51.672L26.968 34.176H31.896V64H19.48Z" fill="#424242" fill-opacity="0.19" style="mix-blend-mode:overlay"/>
<defs>
<radialGradient id="paint0_angular_255_830" cx="0" cy="0" r="1" gradientUnits="userSpaceOnUse" gradientTransform="translate(41 41) rotate(90) scale(41)">
<stop offset="0.270833" stop-color="#8B65FE"/>
<stop offset="0.71875" stop-color="#4DFCE0"/>
</radialGradient>
<linearGradient id="paint1_linear_255_830" x1="19.9801" y1="11.8745" x2="85.5456" y2="65.1505" gradientUnits="userSpaceOnUse">
<stop stop-color="#00FFE6"/>
<stop offset="1" stop-color="#671DFF"/>
</linearGradient>
<radialGradient id="paint2_angular_255_830" cx="0" cy="0" r="1" gradientUnits="userSpaceOnUse" gradientTransform="translate(41 41) rotate(90) scale(39 26)">
<stop offset="0.03125" stop-color="white"/>
<stop offset="0.171875"/>
<stop offset="0.3125" stop-color="white"/>
<stop offset="0.442708"/>
<stop offset="0.567708" stop-color="white"/>
<stop offset="0.692708"/>
<stop offset="0.8125" stop-color="white"/>
<stop offset="0.9375"/>
</radialGradient>
<radialGradient id="paint3_angular_255_830" cx="0" cy="0" r="1" gradientUnits="userSpaceOnUse" gradientTransform="translate(41 41) rotate(90) scale(39 26)">
<stop offset="0.03125" stop-color="white"/>
<stop offset="0.171875"/>
<stop offset="0.3125" stop-color="white"/>
<stop offset="0.442708"/>
<stop offset="0.567708" stop-color="white"/>
<stop offset="0.692708"/>
<stop offset="0.8125" stop-color="white"/>
<stop offset="0.9375"/>
</radialGradient>
</defs>
</svg>
