<svg width="263" height="297" viewBox="0 0 263 297" fill="none" xmlns="http://www.w3.org/2000/svg">
<path d="M131.5 296.557C127.526 296.557 123.552 295.532 120.007 293.489L11.4932 230.833C4.40223 226.744 0 219.116 0 210.931V85.6288C0 77.4405 4.40552 69.8124 11.4965 65.7232L120.007 3.0706C127.098 -1.02189 135.902 -1.02518 142.997 3.0706L251.507 65.7199C258.594 69.8091 263 77.4372 263 85.6255V210.927C263 219.116 258.594 226.744 251.503 230.833L142.993 293.486C139.448 295.532 135.474 296.557 131.5 296.557ZM131.5 19.7635C130.946 19.7635 130.393 19.9052 129.895 20.1918L21.3785 82.8445C20.3867 83.4178 19.7705 84.4854 19.7705 85.6288V210.931C19.7705 212.074 20.3867 213.142 21.3752 213.712L129.892 276.368C130.881 276.935 132.113 276.941 133.105 276.368L241.622 213.715C242.613 213.142 243.226 212.077 243.226 210.931V85.6288C243.226 84.4821 242.61 83.4178 241.625 82.8478L133.105 20.1918C132.61 19.9052 132.054 19.7635 131.5 19.7635Z" fill="url(#paint0_linear_258_149)"/>
<path d="M131.5 296.557C127.526 296.557 123.552 295.532 120.007 293.489L11.4932 230.833C4.40223 226.744 0 219.116 0 210.931V85.6288C0 77.4405 4.40552 69.8124 11.4965 65.7232L120.007 3.0706C127.098 -1.02189 135.902 -1.02518 142.997 3.0706L251.507 65.7199C258.594 69.8091 263 77.4372 263 85.6255V210.927C263 219.116 258.594 226.744 251.503 230.833L142.993 293.486C139.448 295.532 135.474 296.557 131.5 296.557ZM131.5 19.7635C130.946 19.7635 130.393 19.9052 129.895 20.1918L21.3785 82.8445C20.3867 83.4178 19.7705 84.4854 19.7705 85.6288V210.931C19.7705 212.074 20.3867 213.142 21.3752 213.712L129.892 276.368C130.881 276.935 132.113 276.941 133.105 276.368L241.622 213.715C242.613 213.142 243.226 212.077 243.226 210.931V85.6288C243.226 84.4821 242.61 83.4178 241.625 82.8478L133.105 20.1918C132.61 19.9052 132.054 19.7635 131.5 19.7635Z" fill="url(#paint1_angular_258_149)" fill-opacity="0.3" style="mix-blend-mode:difference"/>
<path d="M131.5 296.557C127.526 296.557 123.552 295.532 120.007 293.489L11.4932 230.833C4.40223 226.744 0 219.116 0 210.931V85.6288C0 77.4405 4.40552 69.8124 11.4965 65.7232L120.007 3.0706C127.098 -1.02189 135.902 -1.02518 142.997 3.0706L251.507 65.7199C258.594 69.8091 263 77.4372 263 85.6255V210.927C263 219.116 258.594 226.744 251.503 230.833L142.993 293.486C139.448 295.532 135.474 296.557 131.5 296.557ZM131.5 19.7635C130.946 19.7635 130.393 19.9052 129.895 20.1918L21.3785 82.8445C20.3867 83.4178 19.7705 84.4854 19.7705 85.6288V210.931C19.7705 212.074 20.3867 213.142 21.3752 213.712L129.892 276.368C130.881 276.935 132.113 276.941 133.105 276.368L241.622 213.715C242.613 213.142 243.226 212.077 243.226 210.931V85.6288C243.226 84.4821 242.61 83.4178 241.625 82.8478L133.105 20.1918C132.61 19.9052 132.054 19.7635 131.5 19.7635Z" fill="url(#paint2_angular_258_149)" fill-opacity="0.2" style="mix-blend-mode:screen"/>
<path d="M131.5 296.557C127.526 296.557 123.552 295.532 120.007 293.489L11.4932 230.833C4.40223 226.744 0 219.116 0 210.931V85.6288C0 77.4405 4.40552 69.8124 11.4965 65.7232L120.007 3.0706C127.098 -1.02189 135.902 -1.02518 142.997 3.0706L251.507 65.7199C258.594 69.8091 263 77.4372 263 85.6255V210.927C263 219.116 258.594 226.744 251.503 230.833L142.993 293.486C139.448 295.532 135.474 296.557 131.5 296.557ZM131.5 19.7635C130.946 19.7635 130.393 19.9052 129.895 20.1918L21.3785 82.8445C20.3867 83.4178 19.7705 84.4854 19.7705 85.6288V210.931C19.7705 212.074 20.3867 213.142 21.3752 213.712L129.892 276.368C130.881 276.935 132.113 276.941 133.105 276.368L241.622 213.715C242.613 213.142 243.226 212.077 243.226 210.931V85.6288C243.226 84.4821 242.61 83.4178 241.625 82.8478L133.105 20.1918C132.61 19.9052 132.054 19.7635 131.5 19.7635Z" fill="#424242" fill-opacity="0.19" style="mix-blend-mode:overlay"/>
<path d="M201.543 127.175L187.514 90.8322C184.879 83.8759 179.15 77.9534 168.292 77.9011H94.5744C83.7714 77.9559 78.057 83.8785 75.3645 90.8322L61.3477 127.175C55.7797 127.888 45.9277 134.453 45.9404 146.904V218.387H71.5874V193.153L131.506 193.155H191.288V218.39L217.057 218.387V146.904C217.017 134.453 207.138 127.885 201.543 127.172V127.175ZM72.8501 165.237C66.2915 165.262 60.9764 159.77 61.0038 153.015C60.9789 146.221 66.2911 140.727 72.8501 140.767C79.3966 140.727 84.6964 146.218 84.6837 153.015C84.6961 159.77 79.3939 165.261 72.8501 165.237ZM131.385 126.826H75.9418L86.5312 98.1949C87.8028 94.1386 89.797 91.2385 94.4682 91.1709H168.536C173.14 91.2382 175.121 94.1409 176.46 98.1949L187.05 126.826H131.385ZM190.152 165.237C183.539 165.262 178.227 159.77 178.199 153.015C178.224 146.221 183.539 140.727 190.152 140.767C196.647 140.727 201.947 146.218 201.986 153.015C201.944 159.77 196.644 165.261 190.152 165.237Z" fill="url(#paint3_linear_258_149)"/>
<path d="M201.543 127.175L187.514 90.8322C184.879 83.8759 179.15 77.9534 168.292 77.9011H94.5744C83.7714 77.9559 78.057 83.8785 75.3645 90.8322L61.3477 127.175C55.7797 127.888 45.9277 134.453 45.9404 146.904V218.387H71.5874V193.153L131.506 193.155H191.288V218.39L217.057 218.387V146.904C217.017 134.453 207.138 127.885 201.543 127.172V127.175ZM72.8501 165.237C66.2915 165.262 60.9764 159.77 61.0038 153.015C60.9789 146.221 66.2911 140.727 72.8501 140.767C79.3966 140.727 84.6964 146.218 84.6837 153.015C84.6961 159.77 79.3939 165.261 72.8501 165.237ZM131.385 126.826H75.9418L86.5312 98.1949C87.8028 94.1386 89.797 91.2385 94.4682 91.1709H168.536C173.14 91.2382 175.121 94.1409 176.46 98.1949L187.05 126.826H131.385ZM190.152 165.237C183.539 165.262 178.227 159.77 178.199 153.015C178.224 146.221 183.539 140.727 190.152 140.767C196.647 140.727 201.947 146.218 201.986 153.015C201.944 159.77 196.644 165.261 190.152 165.237Z" fill="url(#paint4_angular_258_149)" fill-opacity="0.4" style="mix-blend-mode:difference"/>
<path d="M201.543 127.175L187.514 90.8322C184.879 83.8759 179.15 77.9534 168.292 77.9011H94.5744C83.7714 77.9559 78.057 83.8785 75.3645 90.8322L61.3477 127.175C55.7797 127.888 45.9277 134.453 45.9404 146.904V218.387H71.5874V193.153L131.506 193.155H191.288V218.39L217.057 218.387V146.904C217.017 134.453 207.138 127.885 201.543 127.172V127.175ZM72.8501 165.237C66.2915 165.262 60.9764 159.77 61.0038 153.015C60.9789 146.221 66.2911 140.727 72.8501 140.767C79.3966 140.727 84.6964 146.218 84.6837 153.015C84.6961 159.77 79.3939 165.261 72.8501 165.237ZM131.385 126.826H75.9418L86.5312 98.1949C87.8028 94.1386 89.797 91.2385 94.4682 91.1709H168.536C173.14 91.2382 175.121 94.1409 176.46 98.1949L187.05 126.826H131.385ZM190.152 165.237C183.539 165.262 178.227 159.77 178.199 153.015C178.224 146.221 183.539 140.727 190.152 140.767C196.647 140.727 201.947 146.218 201.986 153.015C201.944 159.77 196.644 165.261 190.152 165.237Z" fill="url(#paint5_angular_258_149)" fill-opacity="0.4" style="mix-blend-mode:screen"/>
<defs>
<linearGradient id="paint0_linear_258_149" x1="25.1877" y1="37.5429" x2="279.088" y2="311.99" gradientUnits="userSpaceOnUse">
<stop stop-color="#00FFE6"/>
<stop offset="1" stop-color="#671DFF"/>
</linearGradient>
<radialGradient id="paint1_angular_258_149" cx="0" cy="0" r="1" gradientUnits="userSpaceOnUse" gradientTransform="translate(131.5 148.278) rotate(90) scale(148.278 131.5)">
<stop offset="0.03125" stop-color="white"/>
<stop offset="0.171875"/>
<stop offset="0.3125" stop-color="white"/>
<stop offset="0.442708"/>
<stop offset="0.567708" stop-color="white"/>
<stop offset="0.692708"/>
<stop offset="0.8125" stop-color="white"/>
<stop offset="0.9375"/>
</radialGradient>
<radialGradient id="paint2_angular_258_149" cx="0" cy="0" r="1" gradientUnits="userSpaceOnUse" gradientTransform="translate(131.5 148.278) rotate(90) scale(148.278 131.5)">
<stop offset="0.03125" stop-color="white"/>
<stop offset="0.171875"/>
<stop offset="0.3125" stop-color="white"/>
<stop offset="0.442708"/>
<stop offset="0.567708" stop-color="white"/>
<stop offset="0.692708"/>
<stop offset="0.8125" stop-color="white"/>
<stop offset="0.9375"/>
</radialGradient>
<linearGradient id="paint3_linear_258_149" x1="62.3284" y1="95.6864" x2="174.132" y2="261.666" gradientUnits="userSpaceOnUse">
<stop stop-color="#00FFE6"/>
<stop offset="1" stop-color="#671DFF"/>
</linearGradient>
<radialGradient id="paint4_angular_258_149" cx="0" cy="0" r="1" gradientUnits="userSpaceOnUse" gradientTransform="translate(131.499 148.145) rotate(90) scale(70.2443 85.5582)">
<stop offset="0.03125" stop-color="white"/>
<stop offset="0.171875"/>
<stop offset="0.3125" stop-color="white"/>
<stop offset="0.442708"/>
<stop offset="0.567708" stop-color="white"/>
<stop offset="0.692708"/>
<stop offset="0.8125" stop-color="white"/>
<stop offset="0.9375"/>
</radialGradient>
<radialGradient id="paint5_angular_258_149" cx="0" cy="0" r="1" gradientUnits="userSpaceOnUse" gradientTransform="translate(131.499 148.145) rotate(90) scale(70.2443 85.5582)">
<stop offset="0.03125" stop-color="white"/>
<stop offset="0.171875"/>
<stop offset="0.3125" stop-color="white"/>
<stop offset="0.442708"/>
<stop offset="0.567708" stop-color="white"/>
<stop offset="0.692708"/>
<stop offset="0.8125" stop-color="white"/>
<stop offset="0.9375"/>
</radialGradient>
</defs>
</svg>
